<svg xmlns="http://www.w3.org/2000/svg" width="61.689" height="56.778" viewBox="0 0 61.689 56.778"><g transform="translate(-1.155 -3.611)"><path d="M31.957,15.889H27.478a.919.919,0,1,1,0-1.838h4.479a.919.919,0,0,1,0,1.838Z" fill="#fff"/><path d="M42.523,15.889H36.206a.919.919,0,0,1,0-1.838h6.317a.919.919,0,0,1,0,1.838Z" fill="#fff"/><path d="M41.144,19.909H27.526a.952.952,0,0,1-.955-.764.919.919,0,0,1,.906-1.073H42.522a.919.919,0,0,1,.919.919h0a.919.919,0,0,1-.919.919H41.144Z" fill="#fff"/><path d="M41.144,27.948H27.526a.952.952,0,0,1-.955-.764.919.919,0,0,1,.906-1.073H42.522a.919.919,0,0,1,.919.919h0a.919.919,0,0,1-.919.919H41.144Z" fill="#fff"/><path d="M31.957,23.929H27.478a.919.919,0,0,1,0-1.838h4.479a.919.919,0,0,1,0,1.838Z" fill="#fff"/><path d="M42.523,23.929H36.206a.919.919,0,0,1,0-1.838h6.317a.919.919,0,0,1,0,1.838Z" fill="#fff"/><path d="M7.59,11.9c1.989,0,3.592-2.053,3.592-4.619S9.579,3.813,7.59,3.813,4,4.775,4,7.277,5.6,11.9,7.59,11.9Z" fill="#fff"/><path d="M10.137,13.425a6.482,6.482,0,0,1,2.938.62,2.134,2.134,0,0,1,.363.319c.146.16.289.323.442.476l2.3,2.3,3.788-2.273a1.726,1.726,0,0,1,2.264.378,1.66,1.66,0,0,1-.474,2.42l-4.981,2.988a1.659,1.659,0,0,1-2.028-.249L12.81,18.673V45.485A1.817,1.817,0,0,1,11.353,47.3a1.756,1.756,0,0,1-2.038-1.49L8.182,33.253a.576.576,0,0,0-.575-.528.612.612,0,0,0-.575.528L6.1,45.771A1.755,1.755,0,0,1,4.36,47.328H4.11a1.756,1.756,0,0,1-1.756-1.756V27.485a.128.128,0,0,0-.071-.113,2.064,2.064,0,0,1-1.128-1.84V15.94a2.241,2.241,0,0,1,1.156-1.979A7.609,7.609,0,0,1,5.074,13.5l2.515,2.322Z" fill="#fff"/><path d="M28.164,50.067h0a3.531,3.531,0,0,1-3.531-3.531V44.567a2.513,2.513,0,0,1,2.513-2.513h2.037A2.513,2.513,0,0,1,31.7,44.567v1.969A3.533,3.533,0,0,1,28.164,50.067Z" fill="#fff"/><path d="M33.223,60.05H23.1a1.256,1.256,0,0,1-1.256-1.256V56.18a4.957,4.957,0,0,1,4.957-4.957h2.716a4.957,4.957,0,0,1,4.957,4.957v2.614A1.256,1.256,0,0,1,33.223,60.05Z" fill="#fff"/><path d="M42.346,50.237h0a3.531,3.531,0,0,1-3.531-3.531V44.737a2.513,2.513,0,0,1,2.513-2.513h2.037a2.513,2.513,0,0,1,2.513,2.513v1.969A3.531,3.531,0,0,1,42.346,50.237Z" fill="#fff"/><path d="M47.406,60.22H37.287a1.256,1.256,0,0,1-1.256-1.256V56.35a4.957,4.957,0,0,1,4.957-4.957H43.7a4.957,4.957,0,0,1,4.957,4.957v2.614A1.255,1.255,0,0,1,47.406,60.22Z" fill="#fff"/><path d="M56.529,50.407h0A3.531,3.531,0,0,1,53,46.876V44.907a2.513,2.513,0,0,1,2.513-2.513h2.037a2.513,2.513,0,0,1,2.513,2.513v1.969A3.533,3.533,0,0,1,56.529,50.407Z" fill="#fff"/><path d="M61.588,60.389H51.47a1.256,1.256,0,0,1-1.256-1.256V56.519a4.957,4.957,0,0,1,4.957-4.957h2.716a4.957,4.957,0,0,1,4.957,4.957v2.614A1.256,1.256,0,0,1,61.588,60.389Z" fill="#fff"/><path d="M51.516,32.263a1.3,1.3,0,0,0-1.3-1.041H49.031V12.369a3.754,3.754,0,0,0-3.754-3.754H33.932V7.532a3.869,3.869,0,0,0-3.379-3.9,3.759,3.759,0,0,0-4.129,3.735V8.615h-11.8a.835.835,0,0,0-.077,1.667l1.221.014H44.509a2.788,2.788,0,0,1,2.78,2.78V31.221H15.458v2.5H18.3L16.915,45.994h-.73a.667.667,0,0,0,0,1.334h4.671A.667.667,0,0,0,20.943,46l.829-7.347H38.615l.226,2a4.741,4.741,0,0,1,2.485-.7h1.466l-.7-6.23H50.28A1.251,1.251,0,0,0,51.516,32.263ZM32.283,8.586a.285.285,0,0,1,0,.029h-4.2c0-.01,0-.019,0-.029v-1.4a2.1,2.1,0,0,1,4.208,0v1.4ZM21.924,37.319l.406-3.6H38.06l.406,3.6Z" fill="#fff"/></g></svg>