<svg xmlns="http://www.w3.org/2000/svg" width="60" height="60" viewBox="0 0 60 60"><g transform="translate(-2 -2)"><path d="M16,16a2.006,2.006,0,0,0-2-2v4A2.006,2.006,0,0,0,16,16Z" fill="#fff"/><path d="M12,8a2,2,0,0,0,0,4Z" fill="#fff"/><rect width="4" height="4" transform="translate(37 6)" fill="#fff"/><rect width="11" height="4" transform="translate(43 6)" fill="#fff"/><path d="M18,35a3.4,3.4,0,0,1,.1-1H8V32H19a4.923,4.923,0,0,1,4-2H8V28H29v2h2V3.5L28.8,2.4A3.287,3.287,0,0,0,27.1,2H6V36H18ZM20,4h9V6H20Zm0,4h9v2H20Zm0,4h9v2H20Zm0,4h9v2H20Zm0,4h9v2H20ZM8,10a4.012,4.012,0,0,1,4-4V4h2V6a4.012,4.012,0,0,1,4,4H16a2.006,2.006,0,0,0-2-2v4a4,4,0,0,1,0,8v2H12V20a4.012,4.012,0,0,1-4-4h2a2.006,2.006,0,0,0,2,2V14A4.012,4.012,0,0,1,8,10ZM8,24H29v2H8Z" fill="#fff"/><rect width="4" height="18" transform="translate(37 12)" fill="#fff"/><path d="M43,12V30a5.068,5.068,0,0,1,4,2h7V12Zm9,16H45V26h7Zm0-4H45V22h7Zm0-4H45V18h7Zm0-4H45V14h7Z" fill="#fff"/><path d="M36.9,2a3.922,3.922,0,0,0-1.8.4L33,3.5V30h2V4H56V34H47.9a3.4,3.4,0,0,1,.1,1v1H58V2Z" fill="#fff"/><path d="M60,6V38H48v4H62V6Z" fill="#fff"/><path d="M18,38H4V6H2V42H18Z" fill="#fff"/><path d="M43,32H23a2.946,2.946,0,0,0-3,3V59a2.946,2.946,0,0,0,3,3H43a2.946,2.946,0,0,0,3-3V35A2.946,2.946,0,0,0,43,32ZM26,58H22V54h4Zm0-6H22V48h4Zm0-6H22V42h4Zm6,12H28V54h4Zm0-6H28V48h4Zm0-6H28V42h4Zm6,12H34V54h4Zm0-6H34V48h4Zm0-6H34V42h4Zm6,12H40V54h4Zm0-6H40V48h4Zm0-6H40V42h4Zm0-6H22V36H44Z" fill="#fff"/></g></svg>