<svg xmlns="http://www.w3.org/2000/svg" width="67.734" height="71.077" viewBox="0 0 67.734 71.077"><g transform="translate(-1.23 -0.833)"><g transform="translate(1.23 0.833)"><path d="M50.316.835a1.178,1.178,0,0,0-.193.037l-4.7,1.261a1.179,1.179,0,1,0,.612,2.278L47.955,3.9C39.692,17.535,20.965,34.044,2.18,37.769a1.18,1.18,0,1,0,.46,2.315C22.454,36.155,41.406,19.331,50.017,5.036L50.542,7a1.179,1.179,0,0,0,2.278-.607L51.563,1.7a1.245,1.245,0,0,0-1.247-.87ZM46.579,17.521A1.178,1.178,0,0,0,45.4,18.7V40.185a15.34,15.34,0,0,1,2.356-.805v-19.5H52.47V34.014a2.356,2.356,0,0,1,2.356,2.356V18.7a1.178,1.178,0,0,0-1.178-1.178ZM32.442,31.649v.009a1.178,1.178,0,0,0-1.178,1.178V52.863a2.362,2.362,0,0,1,2.356-2.356V34.023h4.712V46.356a14.972,14.972,0,0,1,2.356-3.037V32.85a1.178,1.178,0,0,0-1.178-1.178ZM50.114,36.37v4.768A12.98,12.98,0,0,0,38.393,52.863H33.62v2.356h4.772A12.98,12.98,0,0,0,50.114,66.94v4.772H52.47V66.94A12.98,12.98,0,0,0,64.191,55.219h4.772V52.863H64.191A12.98,12.98,0,0,0,52.47,41.138V36.37ZM18.3,41.28a1.178,1.178,0,0,0-1.178,1.178V70.732A1.178,1.178,0,0,0,18.3,71.91h7.069a1.178,1.178,0,0,0,1.178-1.178V42.458a1.178,1.178,0,0,0-1.178-1.178Zm31.809,2.273v2.361a8.226,8.226,0,0,0-6.949,6.949H40.808A10.51,10.51,0,0,1,50.114,43.554Zm2.356,0a10.51,10.51,0,0,1,9.305,9.31H59.419a8.226,8.226,0,0,0-6.949-6.949Zm-32.987.083H24.2V69.554H19.483ZM4.168,45.993A1.178,1.178,0,0,0,2.99,47.171V70.732A1.178,1.178,0,0,0,4.168,71.91h7.069a1.178,1.178,0,0,0,1.178-1.178V47.171a1.178,1.178,0,0,0-1.178-1.178ZM50.1,48.266h.014v2.457a3.556,3.556,0,0,0-2.135,2.14H45.521A5.869,5.869,0,0,1,50.1,48.266Zm2.37,0a5.866,5.866,0,0,1,4.593,4.6H54.605a3.556,3.556,0,0,0-2.135-2.14Zm-47.124.083h4.712V69.554H5.346Zm25.918,6.871V70.525A1.178,1.178,0,0,0,32.442,71.7l7.069-.023A1.178,1.178,0,0,0,40.689,70.5V64.745a14.963,14.963,0,0,1-2.356-3.037v7.621H33.62V57.566a2.356,2.356,0,0,1-2.356-2.347Zm9.544,0h2.356a8.229,8.229,0,0,0,6.949,6.949v2.356A10.508,10.508,0,0,1,40.808,55.219Zm4.712,0h2.458a3.558,3.558,0,0,0,2.135,2.135v2.457A5.866,5.866,0,0,1,45.521,55.219Zm9.084,0h2.458a5.866,5.866,0,0,1-4.593,4.593V57.355A3.557,3.557,0,0,0,54.605,55.219Zm4.814,0h2.356a10.508,10.508,0,0,1-9.305,9.3V62.168A8.229,8.229,0,0,0,59.419,55.219ZM45.4,67.888v2.637A1.178,1.178,0,0,0,46.579,71.7h1.178V68.694A15.366,15.366,0,0,1,45.4,67.888Z" transform="translate(-1.23 -0.833)" fill="#fff"/></g></g></svg>