<svg xmlns="http://www.w3.org/2000/svg" width="60" height="60" viewBox="0 0 60 60"><g transform="translate(-2 -2)"><path d="M20,20a3,3,0,0,0-3,3,.978.978,0,0,0,.017.179l1.7,9.358A3,3,0,0,0,21.567,35L26,35.83v18.4c-.539-.139-1.078-.289-1.6-.463l-.635,1.9c.651.218,1.324.413,2,.579L26,55.288V58.5a3.495,3.495,0,0,0,6,2.442A3.495,3.495,0,0,0,38,58.5V35.834L42.572,35a3.009,3.009,0,0,0,2.795-2.209l2.6-9.526A1.029,1.029,0,0,0,48,23a3,3,0,0,0-6-.154l-1.552,5.429a1,1,0,0,1-.961.725H35.974A4.948,4.948,0,0,0,37,26a5,5,0,0,0-10,0,4.948,4.948,0,0,0,1.026,3H24.735a1,1,0,0,1-.989-.859L23,22.922A3.006,3.006,0,0,0,20,20Zm9,6a3,3,0,1,1,3,3A3,3,0,0,1,29,26Zm-4.266,5H39.491a3.013,3.013,0,0,0,2.885-2.176l1.586-5.549A1.02,1.02,0,0,0,44,23a1,1,0,0,1,1.994-.111l-2.557,9.375a1,1,0,0,1-.964.736.988.988,0,0,0-.18.016l-5.473,1A1,1,0,0,0,36,35V58.5a1.5,1.5,0,0,1-3,0V45H31V58.5a1.5,1.5,0,0,1-3,0V35a1,1,0,0,0-.815-.983l-5.331-1A1.053,1.053,0,0,0,21.669,33a1,1,0,0,1-.984-.821L19,22.925A1,1,0,0,1,21,23a.969.969,0,0,0,.01.142l.755,5.282A3.014,3.014,0,0,0,24.734,31Z" fill="#fff"/><path d="M11,20a9,9,0,1,0-9-9A9.01,9.01,0,0,0,11,20ZM11,4a7,7,0,1,1-7,7A7.008,7.008,0,0,1,11,4Z" fill="#fff"/><path d="M10,13h4V11H11V7H9v5A1,1,0,0,0,10,13Z" fill="#fff"/><path d="M61,12H60V3a1,1,0,0,0-1-1H41a1,1,0,0,0-1,1v9H39a1,1,0,0,0-1,1,5.006,5.006,0,0,0,5,5H57a5.006,5.006,0,0,0,5-5A1,1,0,0,0,61,12ZM42,4H58v8H42ZM57,16H43a3.006,3.006,0,0,1-2.829-2H59.829A3.006,3.006,0,0,1,57,16Z" fill="#fff"/><rect width="2" height="3" transform="translate(45 7)" fill="#fff"/><rect width="2" height="4" transform="translate(49 6)" fill="#fff"/><rect width="2" height="3" transform="translate(53 7)" fill="#fff"/><path d="M3,62H17a1,1,0,0,0,1-1V47a1,1,0,0,0-.375-.781l-5-4A1,1,0,0,0,12,42H3a1,1,0,0,0-1,1V61A1,1,0,0,0,3,62ZM4,44h7.649L16,47.48V60H4Z" fill="#fff"/><path d="M51,40a10.986,10.986,0,0,0-6.618,19.766c.007.005.009.014.016.019.042.032.087.059.13.09.178.13.357.256.542.375.088.057.178.108.267.162.179.108.358.217.544.316.159.084.322.157.484.233.2.1.407.185.616.267s.429.167.648.238c.113.036.228.067.342.1.213.061.427.118.644.166.116.026.232.049.349.071.231.043.463.078.7.107.1.013.208.028.313.038.34.033.681.053,1.026.053s.686-.02,1.026-.052c.1-.01.209-.025.313-.038.234-.029.467-.063.7-.107.117-.022.233-.046.349-.071.217-.048.431-.1.644-.166.114-.033.229-.063.342-.1.219-.071.434-.153.648-.238s.413-.173.616-.267c.162-.076.325-.149.484-.233.186-.1.364-.207.544-.316.089-.054.179-.106.267-.162.185-.119.365-.246.542-.375.043-.031.088-.058.13-.09.007-.005.009-.014.016-.019A10.987,10.987,0,0,0,51,40ZM46,58.471V56a4,4,0,0,1,4-4h2a4,4,0,0,1,4,4v2.471a8.705,8.705,0,0,1-1.161.657h0a9.137,9.137,0,0,1-7.673,0h0A8.757,8.757,0,0,1,46,58.471ZM51,50a2,2,0,1,1,2-2A2,2,0,0,1,51,50Zm7,6.644V56a6,6,0,0,0-3.83-5.588A3.96,3.96,0,0,0,55,48a4,4,0,0,0-8,0,3.96,3.96,0,0,0,.83,2.412A6,6,0,0,0,44,56v.644a9,9,0,1,1,14,0Z" fill="#fff"/><rect width="7" height="2" transform="translate(6 47)" fill="#fff"/><rect width="8" height="2" transform="translate(6 51)" fill="#fff"/><rect width="8" height="2" transform="translate(6 55)" fill="#fff"/><path d="M37.786,5.646c-.677-.154-1.364-.281-2.044-.379l-.285,1.979c.627.09,1.262.208,1.888.35Z" fill="#fff"/><path d="M22.314,9.034,21.5,7.205c-.629.278-1.258.586-1.866.916L20.59,9.88C21.153,9.575,21.733,9.291,22.314,9.034Z" fill="#fff"/><path d="M32,7q.78,0,1.547.049l.129-2Q32.843,5,32,5l-.4,0,.031,2Z" fill="#fff"/><path d="M25.936,7.772l-.5-1.936c-.666.173-1.335.377-1.99.605l.658,1.89C24.7,8.12,25.321,7.933,25.936,7.772Z" fill="#fff"/><path d="M29.712,7.107l-.189-1.991c-.689.065-1.382.159-2.06.278l.346,1.97C28.435,7.254,29.075,7.168,29.712,7.107Z" fill="#fff"/><path d="M9.6,39.638c-.229-.593-.437-1.2-.617-1.815l-1.918.566c.2.664.421,1.326.67,1.97Z" fill="#fff"/><path d="M6.159,28.1l1.988.221c.07-.634.167-1.272.288-1.9l-1.963-.38C6.341,26.72,6.236,27.412,6.159,28.1Z" fill="#fff"/><path d="M6,31q0,.629.029,1.25l2-.093C8.01,31.774,8,31.388,8,31q0-.382.012-.762l-2-.066C6,30.447,6,30.723,6,31Z" fill="#fff"/><path d="M8.513,35.962c-.131-.627-.238-1.264-.318-1.893l-1.985.253c.087.681.2,1.371.346,2.05Z" fill="#fff"/><path d="M9.463,22.727l-1.877-.688c-.239.651-.454,1.317-.638,1.979l1.926.536C9.045,23.943,9.242,23.329,9.463,22.727Z" fill="#fff"/><path d="M19.942,54.041c.613.321,1.245.621,1.879.891l.783-1.84c-.584-.249-1.168-.526-1.734-.823Z" fill="#fff"/><path d="M55.305,36.76l1.941.479c.12-.485.226-.977.318-1.473L55.6,35.4Q55.471,36.087,55.305,36.76Z" fill="#fff"/><path d="M55.782,27.754c.086.634.147,1.276.181,1.91l2-.107c-.037-.687-.1-1.384-.2-2.071Z" fill="#fff"/><path d="M57.993,31.633l-2-.047c-.015.631-.055,1.276-.121,1.917l1.99.2C57.933,33.014,57.977,32.315,57.993,31.633Z" fill="#fff"/><path d="M53.559,20.44c.28.572.541,1.162.774,1.754l1.861-.733c-.254-.643-.536-1.283-.841-1.9Z" fill="#fff"/><path d="M54.966,24.008c.184.6.347,1.228.485,1.857l1.953-.428c-.149-.682-.326-1.359-.524-2.013Z" fill="#fff"/></g></svg>